<?xml version="1.0" encoding="UTF-8"?>
<svg version="1.1" xmlns="http://www.w3.org/2000/svg" width="512" height="348">
<path d="M0 0 C1.79212096 -0.00346232 3.58423979 -0.00823072 5.37635422 -0.01418173 C10.27022644 -0.02664248 15.16392193 -0.02054387 20.05779457 -0.01122308 C25.3475829 -0.00441266 30.63734164 -0.01492368 35.92712402 -0.02316284 C46.27768513 -0.03648113 56.62818087 -0.03363092 66.97874451 -0.02492492 C75.39318375 -0.01814129 83.80760471 -0.01723459 92.2220459 -0.02049637 C94.02053392 -0.02118592 94.02053392 -0.02118592 95.85535502 -0.0218894 C98.29131858 -0.0228486 100.72728213 -0.02382124 103.16324568 -0.02480717 C125.98876402 -0.03335549 148.81424618 -0.02353568 171.63975859 -0.00740607 C191.21200561 0.00599659 210.78419925 0.00366834 230.35644531 -0.01016235 C253.10201013 -0.02622802 275.84754325 -0.03253157 298.59311295 -0.02332556 C301.01996103 -0.02236995 303.44680913 -0.02142683 305.87365723 -0.02049637 C307.06761698 -0.02003354 308.26157674 -0.01957072 309.4917171 -0.01909386 C317.8930454 -0.01650694 326.29435354 -0.02086856 334.69567871 -0.02793503 C344.93837628 -0.03636117 355.18100491 -0.03404642 365.42369461 -0.0180928 C370.64657128 -0.01022513 375.86933312 -0.00709284 381.09220886 -0.01704025 C385.87887785 -0.02601879 390.6653262 -0.02100245 395.45197535 -0.0051076 C397.1779148 -0.00177314 398.90387313 -0.00342358 400.62980032 -0.01073496 C416.57260163 -0.07305944 430.44205367 1.32110468 442.59082031 12.77938843 C452.30707387 23.08210427 455.35625972 32.75877076 455.3152771 46.70266724 C455.31980821 47.83611454 455.32433933 48.96956185 455.32900774 50.13735604 C455.3416585 53.93181204 455.34003091 57.72612463 455.33837891 61.52059937 C455.34327781 64.2426711 455.35111273 66.96473281 455.35873413 69.6867981 C455.37532335 76.3116681 455.38084274 82.93650252 455.38195889 89.56139156 C455.38291039 94.94872144 455.3870258 100.33603961 455.39336014 105.72336578 C455.41096724 121.01012529 455.42019989 136.29685676 455.41869919 151.58362648 C455.41857932 152.81893196 455.41857932 152.81893196 455.41845703 154.07919312 C455.41837527 154.9037401 455.41829351 155.72828708 455.41820927 156.57782033 C455.41739662 169.93630275 455.43653026 183.29467236 455.46473376 196.65312216 C455.49348958 210.38192557 455.50727256 224.11067401 455.50554621 237.8395083 C455.50488322 245.54219088 455.51033558 253.24475519 455.53190231 260.94741058 C455.55014972 267.5064029 455.5544324 274.06522335 455.54088347 280.62423012 C455.53437136 283.96752656 455.53636266 287.31022573 455.55158997 290.65353394 C455.56706153 294.2864148 455.55772024 297.91843722 455.54232788 301.55130005 C455.55261501 302.59616758 455.56290213 303.64103511 455.57350099 304.7175653 C455.46314864 316.54717865 451.19385571 327.07793207 442.90722656 335.57626343 C434.35509032 343.459355 426.12413828 347.71059679 414.24351597 347.63542652 C413.48482117 347.638633 412.72612637 347.64183948 411.94444081 347.64514312 C409.40555575 347.65343565 406.86690705 347.64752148 404.32801819 347.64164734 C402.4880158 347.64466836 400.64801467 347.64855759 398.80801576 347.65323991 C393.75415258 347.66353493 388.70036021 347.66133425 383.64649117 347.65705931 C378.19514137 347.65459485 372.74380874 347.66360275 367.29246521 347.6710968 C356.61390682 347.68385331 345.93537356 347.68563633 335.25680882 347.68329654 C326.57855103 347.68151439 317.90030087 347.68326081 309.22204399 347.68752098 C307.98749109 347.68811617 306.75293819 347.68871136 305.4809746 347.68932458 C302.97308918 347.69053632 300.46520377 347.69175045 297.95731836 347.69296696 C277.11356841 347.70260632 256.26982897 347.70304503 235.42607803 347.69766305 C234.43184033 347.69740641 234.43184033 347.69740641 233.41751702 347.6971446 C232.07712424 347.69679794 230.73673147 347.69644941 229.39633869 347.69609901 C208.53707691 347.69074111 187.67785741 347.69867451 166.81860352 347.71713257 C143.38058676 347.73784827 119.94259212 347.74854507 96.50456518 347.74455708 C84.09540057 347.74264305 71.68627447 347.74515236 59.27711678 347.75927162 C48.71390516 347.77116881 38.15075576 347.77260894 27.58754332 347.76048145 C22.19722886 347.75458128 16.8070283 347.75352482 11.41672134 347.76548386 C6.48266459 347.77630355 1.54881738 347.77328601 -3.38522942 347.75922217 C-5.17048034 347.75656445 -6.95574747 347.75897536 -8.74098253 347.76695804 C-11.1682317 347.77705843 -13.59475166 347.76864729 -16.0219717 347.75568104 C-16.71449273 347.76299038 -17.40701375 347.77029973 -18.12052026 347.77783057 C-27.95779992 347.66896087 -37.36188696 342.66950508 -44.44824219 336.04891968 C-54.15961502 325.667797 -57.26076797 316.07504905 -57.21957397 302.05923462 C-57.22410509 300.92578731 -57.2286362 299.79234001 -57.23330462 298.62454581 C-57.24595537 294.83008982 -57.24432778 291.03577723 -57.24267578 287.24130249 C-57.24757468 284.51923075 -57.25540961 281.79716905 -57.26303101 279.07510376 C-57.27962023 272.45023375 -57.28513962 265.82539934 -57.28625576 259.20051029 C-57.28720727 253.81318042 -57.29132268 248.42586225 -57.29765701 243.03853607 C-57.31526412 227.75177656 -57.32449677 212.4650451 -57.32299607 197.17827538 C-57.32291615 196.35473839 -57.32283624 195.5312014 -57.32275391 194.68270874 C-57.32267214 193.85816176 -57.32259038 193.03361478 -57.32250614 192.18408152 C-57.3216935 178.8255991 -57.34082713 165.4672295 -57.36903064 152.1087797 C-57.39778645 138.37997628 -57.41156944 124.65122784 -57.40984309 110.92239356 C-57.40918009 103.21971098 -57.41463246 95.51714666 -57.43619919 87.81449127 C-57.45444659 81.25549895 -57.45872928 74.6966785 -57.44518034 68.13767174 C-57.43866823 64.7943753 -57.44065954 61.45167613 -57.45588684 58.10836792 C-57.4713584 54.47548705 -57.46201712 50.84346464 -57.44662476 47.21060181 C-57.45691188 46.16573427 -57.46719901 45.12086674 -57.47779787 44.04433656 C-57.36744552 32.21472321 -53.09815259 21.68396978 -44.81152344 13.18563843 C-31.51348775 0.92792526 -17.32735969 -0.07340228 0 0 Z " fill="#121B22" transform="translate(56.9521484375,0.619049072265625)"/>
<path d="M0 0 C5.61 0 11.22 0 17 0 C17.66 1.65 18.32 3.3 19 5 C27.36200197 10.57466798 38.95701021 7.62803742 49 8 C49 62.12 49 116.24 49 172 C-108.74 172 -266.48 172 -429 172 C-429 117.88 -429 63.76 -429 8 C-416.17672852 7.9906543 -403.35345703 7.98130859 -390.14160156 7.97167969 C-349.1473658 7.93899615 -308.15317605 7.88672727 -267.15897872 7.82207905 C-260.79511365 7.81206117 -254.43124832 7.80221711 -248.06738281 7.79248047 C-246.80041139 7.7905391 -245.53343997 7.78859772 -244.22807547 7.78659752 C-223.69309234 7.75554674 -203.15812039 7.73858829 -182.62311819 7.72680578 C-161.56415578 7.71441015 -140.50525223 7.68694475 -119.44632697 7.64538693 C-106.44392668 7.62020599 -93.44162396 7.60688607 -80.43919894 7.60857043 C-71.53209115 7.6086001 -62.62508301 7.59403849 -53.71801403 7.56783572 C-48.57327927 7.55313708 -43.42874887 7.5450317 -38.28399658 7.55419731 C-33.57862089 7.56243868 -28.87365713 7.55245578 -24.1683428 7.52766338 C-22.46169714 7.52194428 -20.75501288 7.5230495 -19.0483785 7.53148755 C-16.73640389 7.54194353 -14.42583595 7.52803603 -12.11395645 7.50780869 C-10.82746397 7.5062898 -9.54097149 7.50477092 -8.21549439 7.50320601 C-4.42951546 6.91072252 -3.27245723 6.02796483 -1 3 C-0.67 2.01 -0.34 1.02 0 0 Z " fill="#EC1E33" transform="translate(446,85)"/>
<path d="M0 0 C1.79763459 -0.0060452 3.59526404 -0.01382526 5.39288443 -0.02318513 C10.32055818 -0.04373521 15.24794074 -0.03938419 20.17563832 -0.03082395 C25.49480963 -0.02588763 30.81391099 -0.04392007 36.13305664 -0.05889893 C46.54934135 -0.08439235 56.96552294 -0.08798037 67.38183359 -0.0832984 C75.84930096 -0.07973158 84.31673704 -0.08323233 92.78420067 -0.09174728 C93.98957408 -0.09293766 95.1949475 -0.09412804 96.43684739 -0.09535449 C98.88561681 -0.09777801 101.33438623 -0.10020628 103.78315564 -0.10263924 C126.74597564 -0.12439024 149.70873689 -0.12006533 172.67156019 -0.10786955 C193.67269978 -0.09753201 214.6736538 -0.1200399 235.67475668 -0.15806599 C257.24479383 -0.19682246 278.8147432 -0.2133348 300.38481539 -0.20581949 C312.4923114 -0.20199524 324.59964949 -0.20697254 336.70711708 -0.23524857 C347.01477659 -0.25907785 357.32218097 -0.26188436 367.62984399 -0.23766823 C372.8871258 -0.22589156 378.14394099 -0.22368845 383.40119171 -0.24767303 C388.21841009 -0.26939436 393.03477238 -0.26318166 397.85195073 -0.23514967 C399.59010672 -0.22985657 401.32832985 -0.23458667 403.06641994 -0.25062139 C414.11827447 -0.34546466 423.84072883 0.57718703 432.46795207 8.34073484 C438.4079593 14.57912744 439.90140049 21.18776667 439.73918152 29.51748657 C439.73493668 30.35103165 439.73069183 31.18457672 439.72631836 32.04338074 C439.70964591 34.68222593 439.67201635 37.32028198 439.63371277 39.95889282 C439.6186511 41.75770985 439.6049653 43.55653895 439.59269714 45.3553772 C439.55978005 49.74434897 439.50807844 54.13273752 439.44621277 58.52139282 C438.67954285 58.54121216 437.91287292 58.56103149 437.12297058 58.58145142 C433.64704058 58.67674729 430.17170771 58.78640881 426.69621277 58.89639282 C424.88636902 58.94279907 424.88636902 58.94279907 423.03996277 58.99014282 C421.87980652 59.0288147 420.71965027 59.06748657 419.52433777 59.10733032 C417.92187195 59.15446167 417.92187195 59.15446167 416.28703308 59.20254517 C413.36544447 59.53045809 411.7950831 59.76830564 409.44621277 61.52139282 C407.96121277 64.49139282 407.96121277 64.49139282 406.44621277 67.52139282 C401.16621277 67.52139282 395.88621277 67.52139282 390.44621277 67.52139282 C388.96121277 64.55139282 388.96121277 64.55139282 387.44621277 61.52139282 C384.09307938 58.91041567 380.48978511 59.26702195 376.36349106 59.25967979 C375.64638199 59.25568373 374.92927291 59.25168767 374.19043326 59.24757051 C371.77503395 59.23655641 369.3598622 59.2398031 366.94444275 59.24291992 C365.20032213 59.23791932 363.45620383 59.23204422 361.71208882 59.22536719 C356.90965027 59.20952467 352.10727015 59.20613417 347.30480862 59.20471859 C342.12962608 59.20103195 336.95447587 59.18588018 331.77931213 59.17210388 C322.80974922 59.14980405 313.84019776 59.13480716 304.8706131 59.12473679 C291.90202007 59.11016613 278.93346695 59.08463386 265.9648973 59.0564055 C244.92547656 59.01090814 223.88605007 58.97430552 202.84660339 58.94326782 C182.40583793 58.91309433 161.96508652 58.87874959 141.52433777 58.83877563 C140.26487653 58.83631409 139.00541529 58.83385254 137.70778856 58.8313164 C131.38959289 58.81894203 125.07139739 58.80648545 118.75320196 58.79398799 C66.3175585 58.69037612 13.88189751 58.60118742 -38.55378723 58.52139282 C-38.67838706 53.29280058 -38.76859221 48.06509263 -38.82844543 42.83535767 C-38.8534235 41.06046473 -38.88741849 39.28567289 -38.9309845 37.51113892 C-39.41699498 17.19018308 -39.41699498 17.19018308 -31.99543762 8.74893188 C-22.66589548 -0.08915653 -12.12848173 -0.05773134 0 0 Z " fill="#103A9A" transform="translate(55.55378723144531,17.478607177734375)"/>
<path d="M0 0 C157.74 0 315.48 0 478 0 C478 42.72108519 478 42.72108519 470.69174004 50.5974586 C461.11279577 58.53890682 450.8753678 58.86109818 439.08544922 58.76190186 C437.28522039 58.76882477 435.48500006 58.77836045 433.68479729 58.79026532 C428.76375732 58.81521178 423.8434194 58.80297918 418.92237759 58.78434801 C413.60528856 58.77073705 408.28831776 58.79174424 402.97125244 58.80822754 C392.56534781 58.83487486 382.15970319 58.82915907 371.75378847 58.81175169 C363.29496411 58.79818859 354.83621249 58.79636922 346.37738037 58.80289459 C345.17241342 58.80381399 343.96744648 58.80473339 342.72596538 58.80568065 C340.27792054 58.80759904 337.82987573 58.80954432 335.38183093 58.8115162 C312.43898981 58.82861596 289.49629265 58.80896838 266.55347514 58.776714 C246.87737489 58.74990831 227.20148704 58.75456473 207.52539062 58.78222656 C184.66335365 58.81435244 161.80144277 58.82696809 138.93938637 58.80855298 C136.50046414 58.80664173 134.06154189 58.80475551 131.62261963 58.80289459 C130.42269595 58.80196894 129.22277227 58.80104329 127.98648727 58.80008958 C119.54009396 58.79491408 111.0937808 58.80364251 102.6473999 58.81777191 C92.35077443 58.83461822 82.05442332 58.83000766 71.75782919 58.79808745 C66.50661467 58.78234358 61.2558572 58.77610117 56.0046463 58.79598236 C51.19307831 58.81392324 46.382389 58.80393578 41.5709002 58.77211705 C39.83486108 58.76544098 38.098747 58.76876575 36.36275649 58.78337178 C25.29822062 58.86928952 15.66243227 57.89850487 6.97818184 50.21000743 C-5.57839023 37.29218137 0 15.26839216 0 0 Z " fill="#103A9A" transform="translate(17,274)"/>
<path d="M0 0 C15.99734797 9.20223621 26.32511367 27.52798345 31.81640625 44.52734375 C32.6891052 47.80454192 33 50.5885702 33 54 C34.32 54 35.64 54 37 54 C37.13728516 52.68515625 37.13728516 52.68515625 37.27734375 51.34375 C38.95403087 43.58567337 45.46389496 36.32186152 52.0078125 31.98046875 C55.54330013 30.24045425 58.31434993 29.78265937 62 31 C70.76203775 36.18375215 76.43579989 43.57797101 80 53 C80.59167969 53.01417969 81.18335938 53.02835938 81.79296875 53.04296875 C82.58316406 53.09066406 83.37335938 53.13835937 84.1875 53.1875 C84.96480469 53.22230469 85.74210938 53.25710937 86.54296875 53.29296875 C90.30520576 54.37558385 91.63541744 55.86017632 94 59 C94.69706498 62.73972284 94.58185164 66.41435389 94.48828125 70.20703125 C94.47766914 71.82782845 94.47766914 71.82782845 94.46684265 73.48136902 C94.43889847 76.92578945 94.37615633 80.36857255 94.3125 83.8125 C94.28741733 86.15036712 94.26460411 88.48825976 94.24414062 90.82617188 C94.18907176 96.55133801 94.10544419 102.27555203 94 108 C95.10472656 107.96777344 96.20945312 107.93554688 97.34765625 107.90234375 C101 108 101 108 103.4375 109.5625 C105.63021887 112.98314143 105.63007693 115.00951279 105 119 C102.24592024 122.67454533 100.76118509 123.87457165 96.18154907 124.6292057 C94.65855031 124.65661677 93.13490752 124.65659868 91.61181641 124.63491821 C90.76986032 124.64271817 89.92790424 124.65051812 89.06043434 124.65855443 C86.24036472 124.67849153 83.42164203 124.66270344 80.6015625 124.64697266 C78.57939872 124.65374801 76.55724112 124.66265068 74.53509521 124.67352295 C69.04334153 124.6963324 63.55205708 124.68747297 58.0602951 124.67162752 C52.31573716 124.65897717 46.57121966 124.67070624 40.82666016 124.67855835 C31.17928853 124.68765741 21.53210822 124.67566017 11.88476562 124.65185547 C0.72778555 124.62464384 -10.4287377 124.63345781 -21.58570671 124.6609875 C-31.16121776 124.68367016 -40.73659121 124.68688273 -50.31212044 124.67379415 C-56.03276178 124.66599505 -61.75318833 124.6649708 -67.47381592 124.68147659 C-72.85183875 124.69590968 -78.22927206 124.68592043 -83.60723114 124.65700531 C-85.58212047 124.65038835 -87.55705933 124.65230255 -89.53192902 124.66331863 C-92.22589677 124.6769616 -94.91796976 124.65987424 -97.61181641 124.63491821 C-98.78715722 124.65164863 -98.78715722 124.65164863 -99.98624229 124.66871703 C-103.96023791 124.59719271 -105.811254 124.1463078 -108.98910522 121.68297386 C-111 119 -111 119 -111.5625 115.4375 C-111 112 -111 112 -109.4375 109.5625 C-106.19861026 107.48628863 -103.77782952 107.88979494 -100 108 C-100.01110306 107.39722733 -100.02220612 106.79445465 -100.03364563 106.17341614 C-100.14432556 99.89562814 -100.21970304 93.61811757 -100.2746582 87.33959961 C-100.29979125 84.99703716 -100.33390308 82.65455305 -100.37719727 80.31225586 C-100.43789928 76.94365101 -100.46622251 73.57608351 -100.48828125 70.20703125 C-100.51408768 69.16102249 -100.5398941 68.11501373 -100.56648254 67.03730774 C-100.56928601 59.75768993 -100.56928601 59.75768993 -97.61206055 55.82177734 C-94.81297368 53.8695588 -93.81561214 53.56149415 -90.5 53.8125 C-88.13907948 53.78342808 -88.13907948 53.78342808 -86 53 C-84.28998475 50.65831684 -83.28487391 48.30890482 -82.16796875 45.63671875 C-79.43203735 39.46028498 -74.08924693 33.97351761 -68 31 C-63.45109174 30.03056054 -61.53094416 30.12861354 -57.515625 32.4140625 C-51.15102896 37.10071959 -46.36534727 42.82356409 -43 50 C-43 51.32 -43 52.64 -43 54 C-41.68 54 -40.36 54 -39 54 C-38.9175 53.113125 -38.835 52.22625 -38.75 51.3125 C-35.67720382 30.67493648 -23.92784706 13.94702124 -8 1 C-5.16719168 -0.41640416 -3.14269666 -0.27411728 0 0 Z " fill="#161D23" transform="translate(259,113)"/>
<path d="M0 0 C2 0 2 0 3.8828125 1.84375 C8.52284174 7.34064875 12.21562436 12.77083595 15.4375 19.1875 C15.7670166 19.83976562 16.0965332 20.49203125 16.43603516 21.1640625 C19.9281403 28.41451161 21.20313582 35.45790569 21.55859375 43.484375 C22.07755012 46.44196706 22.93995771 47.83768611 25 50 C29.44023226 51.48007742 33.78675298 51.1843724 38.4375 51.1875 C39.39205078 51.19974609 40.34660156 51.21199219 41.33007812 51.22460938 C42.71163086 51.22750977 42.71163086 51.22750977 44.12109375 51.23046875 C45.38070923 51.23663208 45.38070923 51.23663208 46.66577148 51.24291992 C49.22744979 50.97632962 50.8217516 50.35520765 53 49 C54.75368231 46.28924271 55.3392465 43.71688542 55.875 40.5625 C56.70778552 36.49259656 58.06514859 34.03267979 61 31 C64.9207972 32.48719894 66.22975521 34.22860893 68 38 C68.82101296 40.87765041 69.56482014 43.75980487 70.25390625 46.671875 C70.62322266 47.82429688 70.62322266 47.82429688 71 49 C73.97949852 50.63379316 73.97949852 50.63379316 82 51 C82 63.21 82 75.42 82 88 C28.54 88 -24.92 88 -80 88 C-80 76.12 -80 64.24 -80 52 C-77.03 51.34 -74.06 50.68 -71 50 C-67.82759187 46.82759187 -67.48541095 45.80962727 -66.5625 41.625 C-65.46500992 37.21752654 -64.28317317 34.28317317 -61 31 C-57.11078647 32.47521893 -55.7509152 34.25940843 -54 38 C-53.45895643 40.29741634 -53.00657742 42.58485033 -52.625 44.9140625 C-51.88823242 47.37302429 -50.96251257 48.38092713 -49 50 C-45.2673817 51.86630915 -40.79529215 51.22798906 -36.6875 51.25 C-35.73681641 51.270625 -34.78613281 51.29125 -33.80664062 51.3125 C-26.89721102 51.38003722 -26.89721102 51.38003722 -21 48 C-19.79641882 45.59283763 -19.8252321 43.87524347 -19.6875 41.1875 C-18.31930807 25.32891167 -10.99229019 11.36602806 0 0 Z " fill="#FDFDFD" transform="translate(255,132)"/>
</svg>
